Jump_normalized_precision_landing11_filtered_grf
version=1
nRows=25
nColumns=37
inDegrees=yes
endheader
time		1_ground_force_vx		1_ground_force_vy		1_ground_force_vz		1_ground_force_px		1_ground_force_py		1_ground_force_pz		1_ground_torque_x		1_ground_torque_y		1_ground_torque_z		2_ground_force_vx		2_ground_force_vy		2_ground_force_vz		2_ground_force_px		2_ground_force_py		2_ground_force_pz		2_ground_torque_x		2_ground_torque_y		2_ground_torque_z		3_ground_force_vx		3_ground_force_vy		3_ground_force_vz		3_ground_force_px		3_ground_force_py		3_ground_force_pz		3_ground_torque_x		3_ground_torque_y		3_ground_torque_z		4_ground_force_vx		4_ground_force_vy		4_ground_force_vz		4_ground_force_px		4_ground_force_py		4_ground_force_pz		4_ground_torque_x		4_ground_torque_y		4_ground_torque_z		
0.555333		-0.000000		0.000000		0.000000		0.083522		0.000000		0.166275		0.000000		0.000000		-0.000000		0.000000		0.000000		0.000000		-0.190458		0.000000		0.249503		0.000000		-0.000000		0.000000		6.376812		368.086910		-109.995964		0.380910		1.275481		1.872725		-0.388651		-22.434435		6.704081		22.056727		333.205405		-95.457993		-0.350512		1.267706		1.865560		1.595281		24.099494		-6.904099		
0.558263		0.000000		0.000000		0.000000		0.083522		0.000000		0.166275		0.000000		0.000000		-0.000000		0.000000		0.000000		0.000000		-0.190458		0.000000		0.249503		0.000000		-0.000000		0.000000		7.564330		349.533384		-111.751711		0.380882		1.275518		1.872700		3.243670		-37.694069		-45.167681		20.136941		310.047292		-95.838436		-0.350484		1.267758		1.865543		1.448269		22.298897		-6.892770		
0.561192		0.000000		-0.000000		-0.000000		0.083522		0.000000		0.166275		-0.000000		-0.000000		0.000000		0.000000		0.000000		0.000000		-0.190458		0.000000		0.249503		0.000000		-0.000000		0.000000		8.487242		329.465593		-112.602632		0.380867		1.275535		1.872646		3.038844		-36.325349		-42.267507		18.216328		285.758081		-94.751094		-0.350463		1.267811		1.865503		1.301883		20.422523		-6.771639		
0.564121		0.000000		-0.000000		-0.000000		0.083522		0.000000		0.166275		-0.000000		-0.000000		0.000000		-0.000000		0.000000		0.000000		-0.190458		0.000000		0.249503		0.000000		-0.000000		0.000000		9.179610		307.959854		-112.296831		0.380863		1.275536		1.872558		2.813829		-34.696548		-39.207439		16.279703		260.574180		-92.149580		-0.350449		1.267866		1.865437		1.155456		18.494304		-6.540319		
0.567051		0.000000		-0.000000		-0.000000		0.083522		0.000000		0.166275		-0.000000		-0.000000		0.000000		-0.000000		-0.000000		0.000000		-0.190458		0.000000		0.249503		-0.000000		0.000000		-0.000000		9.696104		285.155975		-110.592025		0.380869		1.275524		1.872435		2.578117		-32.802868		-36.015763		14.307933		234.755573		-88.075577		-0.350442		1.267921		1.865347		1.007896		16.536921		-6.204313		
0.569980		0.000000		-0.000000		-0.000000		0.083522		0.000000		0.166275		-0.000000		-0.000000		0.000000		-0.000000		-0.000000		-0.000000		-0.190458		0.000000		0.249503		-0.000000		0.000000		-0.000000		10.104184		261.251402		-107.293966		0.380885		1.275508		1.872279		2.345800		-30.649011		-32.728258		12.279149		208.587252		-82.643672		-0.350441		1.267975		1.865236		0.857908		14.573367		-5.774062		
0.572909		0.000000		-0.000000		-0.000000		0.083522		0.000000		0.166275		-0.000000		-0.000000		0.000000		-0.000000		-0.000000		-0.000000		-0.190458		0.000000		0.249503		-0.000000		0.000000		-0.000000		10.465689		236.500429		-102.302812		0.380910		1.275493		1.872100		2.129906		-28.253116		-29.386635		10.176247		182.389294		-76.029998		-0.350447		1.268027		1.865102		0.704637		12.629193		-5.264539		
0.575838		-0.000000		0.000000		0.000000		0.083522		0.000000		0.166275		0.000000		0.000000		-0.000000		-0.000000		-0.000000		-0.000000		-0.190458		0.000000		0.249503		-0.000000		0.000000		-0.000000		10.821155		211.228887		-95.637760		0.380943		1.275489		1.871911		1.937464		-25.647821		-26.039460		8.011897		156.531225		-68.442376		-0.350456		1.268076		1.864949		0.549409		10.733924		-4.693332		
0.578768		-0.000000		0.000000		0.000000		0.083522		0.000000		0.166275		0.000000		0.000000		-0.000000		-0.000000		-0.000000		-0.000000		-0.190458		0.000000		0.249503		-0.000000		0.000000		-0.000000		11.173968		185.814685		-87.474131		0.380982		1.275497		1.871724		1.767378		-22.882649		-22.736646		5.827633		131.422130		-60.121437		-0.350468		1.268126		1.864777		0.395535		8.919796		-4.080509		
0.581697		-0.000000		0.000000		0.000000		0.083522		0.000000		0.166275		0.000000		0.000000		-0.000000		0.000000		0.000000		-0.000000		-0.190458		0.000000		0.249503		0.000000		-0.000000		0.000000		11.505399		160.681368		-78.139182		0.381024		1.275520		1.871544		1.615301		-20.022393		-19.528171		3.695113		107.492988		-51.341801		-0.350479		1.268178		1.864585		1.540380		15.090046		13.124709		
0.584626		-0.000000		0.000000		0.000000		0.083522		0.000000		0.166275		0.000000		0.000000		-0.000000		0.000000		0.000000		0.000000		-0.190458		0.000000		0.249503		0.000000		-0.000000		0.000000		11.783311		136.273390		-68.084792		0.381069		1.275558		1.871372		-0.604689		-6.993335		3.493995		1.707927		85.168488		-42.413088		-0.350490		1.268233		1.864370		1.379024		12.176958		10.320176		
0.587556		-0.000000		0.000000		0.000000		0.083522		0.000000		0.166275		0.000000		0.000000		-0.000000		0.000000		0.000000		0.000000		-0.190458		0.000000		0.249503		0.000000		-0.000000		0.000000		11.965688		113.026417		-57.832144		0.381113		1.275609		1.871201		-0.601880		-5.685365		2.909022		-0.031429		64.844412		-33.674230		-0.350499		1.268291		1.864134		1.185750		9.462549		7.795196		
0.590485		0.000000		0.000000		0.000000		0.083522		0.000000		0.166275		0.000000		0.000000		-0.000000		0.000000		0.000000		0.000000		-0.190458		0.000000		0.249503		0.000000		-0.000000		0.000000		12.001699		91.342079		-47.895457		0.381153		1.275671		1.871025		-0.586994		-4.467499		2.342543		-1.428031		46.880154		-25.474400		-0.350512		1.268355		1.863878		0.966769		7.018260		5.588680		
0.593414		0.000000		-0.000000		-0.000000		0.083522		0.000000		0.166275		-0.000000		-0.000000		0.000000		0.000000		0.000000		0.000000		-0.190458		0.000000		0.249503		0.000000		-0.000000		0.000000		11.838988		71.569642		-38.697462		0.381191		1.275736		1.870835		-0.554724		-3.353618		1.813276		-2.417774		31.593200		-18.143941		-0.350531		1.268421		1.863611		0.735911		4.905681		3.732097		
0.596343		0.000000		-0.000000		-0.000000		0.083522		0.000000		0.166275		-0.000000		-0.000000		0.000000		-0.000000		0.000000		0.000000		-0.190458		0.000000		0.249503		0.000000		-0.000000		0.000000		11.424252		53.978981		-30.487668		0.381224		1.275801		1.870628		-0.500781		-2.366473		1.336563		-2.985377		19.217621		-11.936146		-0.350562		1.268488		1.863337		0.511778		3.166948		2.245337		
0.599273		0.000000		-0.000000		-0.000000		0.083522		0.000000		0.166275		-0.000000		-0.000000		0.000000		-0.000000		-0.000000		0.000000		-0.190458		0.000000		0.249503		-0.000000		0.000000		-0.000000		10.708155		38.770989		-23.324128		0.381255		1.275861		1.870401		-0.424187		-1.536230		0.924115		-3.168859		9.873021		-7.000437		-0.350603		1.268555		1.863063		0.313917		1.821579		1.134624		
0.602202		0.000000		-0.000000		-0.000000		0.083522		0.000000		0.166275		-0.000000		-0.000000		0.000000		-0.000000		-0.000000		-0.000000		-0.190458		0.000000		0.249503		-0.000000		0.000000		-0.000000		9.663292		26.070104		-17.103759		0.381282		1.275916		1.870156		-0.330137		-0.891004		0.584488		-3.052934		3.486739		-3.366940		-0.350654		1.268617		1.862795		0.158039		0.861088		0.384310		
0.605131		0.000000		-0.000000		-0.000000		0.083522		0.000000		0.166275		-0.000000		-0.000000		0.000000		-0.000000		-0.000000		-0.000000		-0.190458		0.000000		0.249503		-0.000000		0.000000		-0.000000		8.311611		15.920168		-11.653893		0.381303		1.275961		1.869894		-0.230483		-0.441700		0.323282		-2.750850		-0.251743		-0.954323		-0.350705		1.268671		1.862536		0.051938		0.248287		-0.048273		
0.608061		-0.000000		0.000000		0.000000		0.083522		0.000000		0.166275		0.000000		0.000000		-0.000000		-0.000000		-0.000000		-0.000000		-0.190458		0.000000		0.249503		-0.000000		0.000000		-0.000000		6.743923		8.273312		-6.858829		0.381319		1.275993		1.869616		-0.137464		-0.168750		0.139878		-2.385872		-1.872810		0.410384		-0.350745		1.268714		1.862285		-0.006012		-0.078463		-0.230590		
0.610990		-0.000000		0.000000		0.000000		0.083522		0.000000		0.166275		0.000000		0.000000		-0.000000		-0.000000		-0.000000		-0.000000		-0.190458		0.000000		0.249503		-0.000000		0.000000		-0.000000		5.112212		2.972121		-2.766357		0.381332		1.276014		1.869329		0.107956		-0.575422		-0.280228		-2.075248		-2.038412		0.964514		-0.350767		1.268742		1.862040		-0.025285		-0.195991		-0.244194		
0.613919		-0.000000		0.000000		0.000000		0.083522		0.000000		0.166275		0.000000		0.000000		-0.000000		0.000000		0.000000		-0.000000		-0.190458		0.000000		0.249503		-0.000000		-0.000000		0.000000		3.598162		-0.261970		0.407907		0.381344		1.276024		1.869034		0.045097		-0.116718		0.045019		-1.912745		-1.417333		0.976401		-0.350767		1.268759		1.861797		-0.019577		-0.183970		-0.169680		
0.616848		-0.000000		0.000000		0.000000		0.083522		0.000000		0.166275		0.000000		0.000000		-0.000000		0.000000		0.000000		0.000000		-0.190458		0.000000		0.249503		0.000000		-0.000000		0.000000		2.361655		-1.838163		2.429375		0.381357		1.276025		1.868733		0.009901		0.146749		0.182271		-1.948185		-0.568982		0.712085		-0.350745		1.268762		1.861553		-0.002827		-0.113114		-0.072837		
0.619778		-0.000000		0.000000		0.000000		0.083522		0.000000		0.166275		0.000000		0.000000		-0.000000		0.000000		0.000000		0.000000		-0.190458		0.000000		0.249503		0.000000		-0.000000		0.000000		1.498621		-2.235913		3.231376		0.381373		1.276022		1.868426		-0.001592		0.245242		0.191442		-2.178269		0.138005		0.396613		-0.350705		1.268757		1.861306		0.014247		-0.035117		0.004415		
0.622707		0.000000		0.000000		0.000000		0.083522		0.000000		0.166275		0.000000		0.000000		-0.000000		0.000000		0.000000		0.000000		-0.190458		0.000000		0.249503		0.000000		-0.000000		0.000000		1.025178		-1.942880		3.010033		0.381388		1.276020		1.868117		0.001746		0.232570		0.135641		-2.549506		0.533857		0.191444		-0.350654		1.268745		1.861055		0.025494		0.019696		0.044159		
0.625636		0.000000		-0.000000		-0.000000		0.083522		0.000000		0.166275		-0.000000		-0.000000		0.000000		0.000000		0.000000		0.000000		-0.190458		0.000000		0.249503		0.000000		-0.000000		0.000000		0.892612		-1.371720		2.141735		0.381397		1.276029		1.867815		0.011754		0.163328		0.063617		-2.975601		0.610816		0.178614		-0.350602		1.268729		1.860803		0.029155		0.040406		0.047420		
